<?xml version="1.0" encoding="UTF-8" standalone="no"?>
<svg
   xmlns:fi="http://pattern.flaticon.com/"
   xmlns:dc="http://purl.org/dc/elements/1.1/"
   xmlns:cc="http://creativecommons.org/ns#"
   xmlns:rdf="http://www.w3.org/1999/02/22-rdf-syntax-ns#"
   xmlns:svg="http://www.w3.org/2000/svg"
   xmlns="http://www.w3.org/2000/svg"
   xmlns:xlink="http://www.w3.org/1999/xlink"
   xmlns:sodipodi="http://sodipodi.sourceforge.net/DTD/sodipodi-0.dtd"
   xmlns:inkscape="http://www.inkscape.org/namespaces/inkscape"
   x="0"
   y="0"
   width="700"
   height="350"
   viewBox="0 0 700 350"
   version="1.1"
   id="svg588"
   sodipodi:docname="pattern.svg"
   inkscape:version="0.92.3 (unknown)">
  <metadata
     id="metadata592">
    <rdf:RDF>
      <cc:Work
         rdf:about="">
        <dc:format>image/svg+xml</dc:format>
        <dc:type
           rdf:resource="http://purl.org/dc/dcmitype/StillImage" />
        <dc:title></dc:title>
      </cc:Work>
    </rdf:RDF>
  </metadata>
  <sodipodi:namedview
     pagecolor="#ffffff"
     bordercolor="#666666"
     borderopacity="1"
     objecttolerance="10"
     gridtolerance="10"
     guidetolerance="10"
     inkscape:pageopacity="0"
     inkscape:pageshadow="2"
     inkscape:window-width="1358"
     inkscape:window-height="717"
     id="namedview590"
     showgrid="false"
     inkscape:zoom="0.70104587"
     inkscape:cx="378.35029"
     inkscape:cy="167.87169"
     inkscape:window-x="0"
     inkscape:window-y="25"
     inkscape:window-maximized="0"
     inkscape:current-layer="svg588"
     showborder="true" />
  <rect
     x="79.880653"
     y="39.940327"
     width="77.176956%"
     height="77.176956%"
     id="rect2"
     style="opacity:1;fill:#ffffff;stroke-width:1" />
  <g
     fi:class="KUsePattern"
     id="g425"
     transform="matrix(0.77176957,0,0,0.77176957,79.880651,39.940325)"
     style="stroke-width:1.29572356">
    <pattern
       id="pattern_L1_20"
       width="350"
       height="350"
       patternUnits="userSpaceOnUse">
      <use
         xlink:href="#L1_20"
         x="-350"
         y="-350"
         id="use404" />
      <use
         xlink:href="#L1_20"
         x="0"
         y="-350"
         id="use406" />
      <use
         xlink:href="#L1_20"
         x="350"
         y="-350"
         id="use408" />
      <use
         xlink:href="#L1_20"
         x="-350"
         y="0"
         id="use410" />
      <use
         xlink:href="#L1_20"
         x="0"
         y="0"
         id="use412" />
      <use
         xlink:href="#L1_20"
         x="350"
         y="0"
         id="use414" />
      <use
         xlink:href="#L1_20"
         x="-350"
         y="350"
         id="use416" />
      <use
         xlink:href="#L1_20"
         x="0"
         y="350"
         id="use418" />
      <use
         xlink:href="#L1_20"
         x="350"
         y="350"
         id="use420" />
    </pattern>
    <rect
       x="0"
       y="0"
       width="100%"
       height="100%"
       id="rect423"
       style="fill:url(#pattern1439);stroke-width:1.67889953" />
  </g>
  <g
     fi:class="KUsePattern"
     id="g448"
     transform="matrix(0.77176957,0,0,0.77176957,79.880651,39.940325)"
     style="stroke-width:1.29572356">
    <pattern
       id="pattern_L1_21"
       width="350"
       height="350"
       patternUnits="userSpaceOnUse">
      <use
         xlink:href="#L1_21"
         x="-350"
         y="-350"
         id="use427" />
      <use
         xlink:href="#L1_21"
         x="0"
         y="-350"
         id="use429" />
      <use
         xlink:href="#L1_21"
         x="350"
         y="-350"
         id="use431" />
      <use
         xlink:href="#L1_21"
         x="-350"
         y="0"
         id="use433" />
      <use
         xlink:href="#L1_21"
         x="0"
         y="0"
         id="use435" />
      <use
         xlink:href="#L1_21"
         x="350"
         y="0"
         id="use437" />
      <use
         xlink:href="#L1_21"
         x="-350"
         y="350"
         id="use439" />
      <use
         xlink:href="#L1_21"
         x="0"
         y="350"
         id="use441" />
      <use
         xlink:href="#L1_21"
         x="350"
         y="350"
         id="use443" />
    </pattern>
    <rect
       x="0"
       y="0"
       width="100%"
       height="100%"
       id="rect446"
       style="fill:url(#pattern1441);stroke-width:1.67889953" />
  </g>
  <g
     fi:class="KUsePattern"
     id="g471"
     transform="matrix(0.77176957,0,0,0.77176957,79.880651,39.940325)"
     style="stroke-width:1.29572356">
    <pattern
       id="pattern_L1_22"
       width="350"
       height="350"
       patternUnits="userSpaceOnUse">
      <use
         xlink:href="#L1_22"
         x="-350"
         y="-350"
         id="use450" />
      <use
         xlink:href="#L1_22"
         x="0"
         y="-350"
         id="use452" />
      <use
         xlink:href="#L1_22"
         x="350"
         y="-350"
         id="use454" />
      <use
         xlink:href="#L1_22"
         x="-350"
         y="0"
         id="use456" />
      <use
         xlink:href="#L1_22"
         x="0"
         y="0"
         id="use458" />
      <use
         xlink:href="#L1_22"
         x="350"
         y="0"
         id="use460" />
      <use
         xlink:href="#L1_22"
         x="-350"
         y="350"
         id="use462" />
      <use
         xlink:href="#L1_22"
         x="0"
         y="350"
         id="use464" />
      <use
         xlink:href="#L1_22"
         x="350"
         y="350"
         id="use466" />
    </pattern>
    <rect
       x="0"
       y="0"
       width="100%"
       height="100%"
       id="rect469"
       style="fill:url(#pattern1443);stroke-width:1.67889953" />
  </g>
  <g
     fi:class="KUsePattern"
     id="g517"
     transform="matrix(0.77176957,0,0,0.77176957,79.880651,39.940325)"
     style="stroke-width:1.29572356">
    <pattern
       id="pattern_L1_24"
       width="350"
       height="350"
       patternUnits="userSpaceOnUse">
      <use
         xlink:href="#L1_24"
         x="-350"
         y="-350"
         id="use496" />
      <use
         xlink:href="#L1_24"
         x="0"
         y="-350"
         id="use498" />
      <use
         xlink:href="#L1_24"
         x="350"
         y="-350"
         id="use500" />
      <use
         xlink:href="#L1_24"
         x="-350"
         y="0"
         id="use502" />
      <use
         xlink:href="#L1_24"
         x="0"
         y="0"
         id="use504" />
      <use
         xlink:href="#L1_24"
         x="350"
         y="0"
         id="use506" />
      <use
         xlink:href="#L1_24"
         x="-350"
         y="350"
         id="use508" />
      <use
         xlink:href="#L1_24"
         x="0"
         y="350"
         id="use510" />
      <use
         xlink:href="#L1_24"
         x="350"
         y="350"
         id="use512" />
    </pattern>
    <rect
       x="0"
       y="0"
       width="100%"
       height="100%"
       id="rect515"
       style="fill:url(#pattern1445);stroke-width:1.67889953" />
  </g>
  <g
     fi:class="KUsePattern"
     id="g494"
     transform="matrix(0.77176957,0,0,0.77176957,79.880651,39.940325)"
     style="stroke-width:1.29572356">
    <pattern
       id="pattern_L1_23"
       width="350"
       height="350"
       patternUnits="userSpaceOnUse">
      <use
         xlink:href="#L1_23"
         x="-350"
         y="-350"
         id="use473" />
      <use
         xlink:href="#L1_23"
         x="0"
         y="-350"
         id="use475" />
      <use
         xlink:href="#L1_23"
         x="350"
         y="-350"
         id="use477" />
      <use
         xlink:href="#L1_23"
         x="-350"
         y="0"
         id="use479" />
      <use
         xlink:href="#L1_23"
         x="0"
         y="0"
         id="use481" />
      <use
         xlink:href="#L1_23"
         x="350"
         y="0"
         id="use483" />
      <use
         xlink:href="#L1_23"
         x="-350"
         y="350"
         id="use485" />
      <use
         xlink:href="#L1_23"
         x="0"
         y="350"
         id="use487" />
      <use
         xlink:href="#L1_23"
         x="350"
         y="350"
         id="use489" />
    </pattern>
    <rect
       x="0"
       y="0"
       width="100%"
       height="100%"
       id="rect492"
       style="fill:url(#pattern1447);stroke-width:1.67889953" />
  </g>
  <g
     fi:class="KUsePattern"
     id="g540"
     transform="matrix(0.77176957,0,0,0.77176957,79.880651,39.940325)"
     style="stroke-width:1.29572356">
    <pattern
       id="pattern_L1_25"
       width="350"
       height="350"
       patternUnits="userSpaceOnUse">
      <use
         xlink:href="#L1_25"
         x="-350"
         y="-350"
         id="use519" />
      <use
         xlink:href="#L1_25"
         x="0"
         y="-350"
         id="use521" />
      <use
         xlink:href="#L1_25"
         x="350"
         y="-350"
         id="use523" />
      <use
         xlink:href="#L1_25"
         x="-350"
         y="0"
         id="use525" />
      <use
         xlink:href="#L1_25"
         x="0"
         y="0"
         id="use527" />
      <use
         xlink:href="#L1_25"
         x="350"
         y="0"
         id="use529" />
      <use
         xlink:href="#L1_25"
         x="-350"
         y="350"
         id="use531" />
      <use
         xlink:href="#L1_25"
         x="0"
         y="350"
         id="use533" />
      <use
         xlink:href="#L1_25"
         x="350"
         y="350"
         id="use535" />
    </pattern>
    <rect
       x="0"
       y="0"
       width="100%"
       height="100%"
       id="rect538"
       style="fill:url(#pattern1449);stroke-width:1.67889953" />
  </g>
  <g
     fi:class="KUsePattern"
     id="g563"
     style="opacity:0.27099998;stroke-width:1.29572356"
     transform="matrix(0.77176957,0,0,0.77176957,79.880651,39.940325)">
    <pattern
       id="pattern_L1_26"
       width="350"
       height="350"
       patternUnits="userSpaceOnUse">
      <use
         xlink:href="#L1_26"
         x="-350"
         y="-350"
         id="use542" />
      <use
         xlink:href="#L1_26"
         x="0"
         y="-350"
         id="use544" />
      <use
         xlink:href="#L1_26"
         x="350"
         y="-350"
         id="use546" />
      <use
         xlink:href="#L1_26"
         x="-350"
         y="0"
         id="use548" />
      <use
         xlink:href="#L1_26"
         x="0"
         y="0"
         id="use550" />
      <use
         xlink:href="#L1_26"
         x="350"
         y="0"
         id="use552" />
      <use
         xlink:href="#L1_26"
         x="-350"
         y="350"
         id="use554" />
      <use
         xlink:href="#L1_26"
         x="0"
         y="350"
         id="use556" />
      <use
         xlink:href="#L1_26"
         x="350"
         y="350"
         id="use558" />
    </pattern>
    <rect
       x="0"
       y="0"
       width="100%"
       height="100%"
       id="rect561"
       style="fill:url(#pattern1451);stroke-width:1.67889953" />
  </g>
  <g
     fi:class="KUsePattern"
     id="g586"
     style="opacity:0.56800011;stroke-width:1.29572356"
     transform="matrix(0.77176957,0,0,0.77176957,79.880651,39.940325)">
    <pattern
       id="pattern_L1_27"
       width="350"
       height="350"
       patternUnits="userSpaceOnUse">
      <use
         xlink:href="#L1_27"
         x="-350"
         y="-350"
         id="use565" />
      <use
         xlink:href="#L1_27"
         x="0"
         y="-350"
         id="use567" />
      <use
         xlink:href="#L1_27"
         x="350"
         y="-350"
         id="use569" />
      <use
         xlink:href="#L1_27"
         x="-350"
         y="0"
         id="use571" />
      <use
         xlink:href="#L1_27"
         x="0"
         y="0"
         id="use573" />
      <use
         xlink:href="#L1_27"
         x="350"
         y="0"
         id="use575" />
      <use
         xlink:href="#L1_27"
         x="-350"
         y="350"
         id="use577" />
      <use
         xlink:href="#L1_27"
         x="0"
         y="350"
         id="use579" />
      <use
         xlink:href="#L1_27"
         x="350"
         y="350"
         id="use581" />
    </pattern>
    <rect
       x="0"
       y="0"
       width="100%"
       height="100%"
       id="rect584"
       style="fill:url(#pattern1453);stroke-width:1.67889953" />
  </g>
  <defs
     id="defs402">
    <pattern
       inkscape:collect="always"
       xlink:href="#pattern_L1_27"
       id="pattern1453"
       patternTransform="matrix(1.2957235,0,0,1.2957235,-103.50324,-51.75162)" />
    <pattern
       inkscape:collect="always"
       xlink:href="#pattern_L1_26"
       id="pattern1451"
       patternTransform="matrix(1.2957235,0,0,1.2957235,-103.50324,-51.75162)" />
    <pattern
       inkscape:collect="always"
       xlink:href="#pattern_L1_25"
       id="pattern1449"
       patternTransform="matrix(1.2957235,0,0,1.2957235,-103.50324,-51.75162)" />
    <pattern
       inkscape:collect="always"
       xlink:href="#pattern_L1_23"
       id="pattern1447"
       patternTransform="matrix(1.2957235,0,0,1.2957235,-103.50324,-51.75162)" />
    <pattern
       inkscape:collect="always"
       xlink:href="#pattern_L1_24"
       id="pattern1445"
       patternTransform="matrix(1.2957235,0,0,1.2957235,-103.50324,-51.75162)" />
    <pattern
       inkscape:collect="always"
       xlink:href="#pattern_L1_22"
       id="pattern1443"
       patternTransform="matrix(1.2957235,0,0,1.2957235,-103.50324,-51.75162)" />
    <pattern
       inkscape:collect="always"
       xlink:href="#pattern_L1_21"
       id="pattern1441"
       patternTransform="matrix(1.2957235,0,0,1.2957235,-103.50324,-51.75162)" />
    <pattern
       inkscape:collect="always"
       xlink:href="#pattern_L1_20"
       id="pattern1439"
       patternTransform="matrix(1.2957235,0,0,1.2957235,-103.50324,-51.75162)" />
    <path
       d="M165,0C74.019,0,0,74.019,0,165s74.019,165,165,165c90.982,0,165-74.019,165-165S255.982,0,165,0z"
       transform="matrix(0.03030303120613098 0 0 0.03030303120613098 82.5 257.5)"
       id="L1_20"
       fill="#06c8ec" />
    <path
       d="M165,0C74.019,0,0,74.019,0,165s74.019,165,165,165c90.982,0,165-74.019,165-165S255.982,0,165,0z"
       transform="matrix(0.03030303120613098 0 0 0.03030303120613098 345 82.5)"
       id="L1_21"
       fill="#96229b" />
    <g
       transform="matrix(-0.11718841642141342 0 0 0.11718841642141342 204.88328079134226 232.49999945640138)"
       id="L1_22">
      <path
         d="M263.998,141.006v-17.008c0-4.422-3.578-8-8-8c-4.422,0-8,3.578-8,8v17.008   c2.557-0.658,5.238-1.008,8-1.008C258.76,139.998,261.441,140.348,263.998,141.006z"
         fill="#52798f"
         id="path6" />
      <path
         d="M255.998,163.998h21.438h9.554c-2.894-11.245-11.747-20.098-22.992-22.992   c-2.557-0.658-5.238-1.008-8-1.008c-2.762,0-5.443,0.35-8,1.008c-11.245,2.894-20.098,11.747-22.992,22.992h9.554H255.998z"
         fill="#5c546a"
         id="path8" />
      <path
         d="M380.279,259.998l-52.125-78.187c-7.437-11.156-19.875-17.812-33.281-17.812h-1.109l31.997,96   H380.279z"
         fill="#00e389"
         id="path10" />
      <path
         d="M277.748,166.529c-0.28-0.841-0.313-1.691-0.312-2.531h-21.438v96h52.904L277.748,166.529z"
         fill="#00e389"
         id="path12" />
      <path
         d="M218.233,163.998h-1.109c-13.406,0-25.844,6.656-33.281,17.812l-52.125,78.187h54.518   L218.233,163.998z"
         fill="#00bbbb"
         id="path14" />
      <path
         d="M255.998,163.998H234.56c0,0.84-0.032,1.69-0.312,2.531l-31.154,93.469h52.904V163.998z"
         fill="#00bbbb"
         id="path16" />
      <path
         d="M277.748,166.529l31.154,93.469h16.859l-31.997-96h-6.774h-9.554   C277.436,164.838,277.468,165.688,277.748,166.529z"
         fill="#00bbbb"
         id="path18" />
      <path
         d="M203.094,259.998l31.154-93.469c0.28-0.841,0.313-1.691,0.312-2.531h-9.554h-6.774l-31.998,96   H203.094z"
         fill="#52798f"
         id="path20" />
      <path
         d="M127.998,347.998c-0.695,0-1.391-0.094-2.063-0.273l-2.466-0.657l33.583,40.29   c4.57,5.492,11.297,8.641,18.438,8.641h80.508v-48H127.998z"
         fill="#5c546a"
         id="path22" />
      <path
         d="M383.998,347.998h-128v48h80.508c7.141,0,13.867-3.148,18.438-8.633l33.583-40.298l-2.466,0.658   C385.389,347.904,384.693,347.998,383.998,347.998z"
         fill="#52798f"
         id="path24" />
      <path
         d="M511.224,304.568c-0.867-1.82-22.195-44.57-111.227-44.57h-19.719h-54.518h-16.859h-52.904v16v32   h255.989c0,1.146-0.237,2.294-0.731,3.359C512.256,309.201,512.24,306.709,511.224,304.568z"
         fill="#e3e6e9"
         id="path26" />
      <path
         d="M255.998,307.998v-32v-16h-52.904h-16.859h-54.518h-19.719c-89.031,0-110.359,42.75-111.227,44.57   c-1.016,2.141-1.031,4.633-0.031,6.789c-0.494-1.065-0.731-2.213-0.731-3.359H255.998z"
         fill="#b6b8be"
         id="path28" />
      <path
         d="M127.998,347.998h128v-16v-24H0.009c0,1.146,0.237,2.294,0.731,3.359   c0.992,2.156,2.898,3.758,5.195,4.367l117.534,31.343l2.466,0.657C126.608,347.904,127.303,347.998,127.998,347.998z"
         fill="#888693"
         id="path30" />
      <path
         d="M255.998,307.998v24v16h128c0.695,0,1.391-0.094,2.063-0.273l2.466-0.658l117.534-31.342   c2.297-0.609,4.203-2.211,5.195-4.367c0.494-1.065,0.731-2.213,0.731-3.359H255.998z"
         fill="#b6b8be"
         id="path32" />
    </g>
    <g
       transform="matrix(0.039062805473804474 0 0 0.039062805473804474 340 165)"
       id="L1_23">
      <path
         d="M263.998,141.006v-17.008c0-4.422-3.578-8-8-8c-4.422,0-8,3.578-8,8v17.008   c2.557-0.658,5.238-1.008,8-1.008C258.76,139.998,261.441,140.348,263.998,141.006z"
         fill="#52798f"
         id="path35" />
      <path
         d="M255.998,163.998h21.438h9.554c-2.894-11.245-11.747-20.098-22.992-22.992   c-2.557-0.658-5.238-1.008-8-1.008c-2.762,0-5.443,0.35-8,1.008c-11.245,2.894-20.098,11.747-22.992,22.992h9.554H255.998z"
         fill="#5c546a"
         id="path37" />
      <path
         d="M380.279,259.998l-52.125-78.187c-7.437-11.156-19.875-17.812-33.281-17.812h-1.109l31.997,96   H380.279z"
         fill="#00e389"
         id="path39" />
      <path
         d="M277.748,166.529c-0.28-0.841-0.313-1.691-0.312-2.531h-21.438v96h52.904L277.748,166.529z"
         fill="#00e389"
         id="path41" />
      <path
         d="M218.233,163.998h-1.109c-13.406,0-25.844,6.656-33.281,17.812l-52.125,78.187h54.518   L218.233,163.998z"
         fill="#00bbbb"
         id="path43" />
      <path
         d="M255.998,163.998H234.56c0,0.84-0.032,1.69-0.312,2.531l-31.154,93.469h52.904V163.998z"
         fill="#00bbbb"
         id="path45" />
      <path
         d="M277.748,166.529l31.154,93.469h16.859l-31.997-96h-6.774h-9.554   C277.436,164.838,277.468,165.688,277.748,166.529z"
         fill="#00bbbb"
         id="path47" />
      <path
         d="M203.094,259.998l31.154-93.469c0.28-0.841,0.313-1.691,0.312-2.531h-9.554h-6.774l-31.998,96   H203.094z"
         fill="#52798f"
         id="path49" />
      <path
         d="M127.998,347.998c-0.695,0-1.391-0.094-2.063-0.273l-2.466-0.657l33.583,40.29   c4.57,5.492,11.297,8.641,18.438,8.641h80.508v-48H127.998z"
         fill="#5c546a"
         id="path51" />
      <path
         d="M383.998,347.998h-128v48h80.508c7.141,0,13.867-3.148,18.438-8.633l33.583-40.298l-2.466,0.658   C385.389,347.904,384.693,347.998,383.998,347.998z"
         fill="#52798f"
         id="path53" />
      <path
         d="M511.224,304.568c-0.867-1.82-22.195-44.57-111.227-44.57h-19.719h-54.518h-16.859h-52.904v16v32   h255.989c0,1.146-0.237,2.294-0.731,3.359C512.256,309.201,512.24,306.709,511.224,304.568z"
         fill="#e3e6e9"
         id="path55" />
      <path
         d="M255.998,307.998v-32v-16h-52.904h-16.859h-54.518h-19.719c-89.031,0-110.359,42.75-111.227,44.57   c-1.016,2.141-1.031,4.633-0.031,6.789c-0.494-1.065-0.731-2.213-0.731-3.359H255.998z"
         fill="#b6b8be"
         id="path57" />
      <path
         d="M127.998,347.998h128v-16v-24H0.009c0,1.146,0.237,2.294,0.731,3.359   c0.992,2.156,2.898,3.758,5.195,4.367l117.534,31.343l2.466,0.657C126.608,347.904,127.303,347.998,127.998,347.998z"
         fill="#888693"
         id="path59" />
      <path
         d="M255.998,307.998v24v16h128c0.695,0,1.391-0.094,2.063-0.273l2.466-0.658l117.534-31.342   c2.297-0.609,4.203-2.211,5.195-4.367c0.494-1.065,0.731-2.213,0.731-3.359H255.998z"
         fill="#b6b8be"
         id="path61" />
    </g>
    <g
       transform="matrix(0.03906242549419403 0 0 0.03906242549419403 165 165)"
       id="L1_24">
      <path
         d="M169.958,449.355c6.325,4.194,13.902,6.645,22.043,6.645c0.811,0,1.615-0.032,2.414-0.08l-6.555-24.467   L169.958,449.355z"
         fill="none"
         id="path64" />
      <path
         d="M180.689,404.688 179.433,400 163.191,400z"
         fill="none"
         id="path66" />
      <path
         d="M209.866,451.773c7.728-3.876,14.031-10.179,17.907-17.907l-24.461-6.553L209.866,451.773z"
         fill="none"
         id="path68" />
      <path
         d="M301.525,400h-18.195c-1.119,2.563-1.973,5.239-2.531,8h25.344L301.525,400z"
         fill="none"
         id="path70" />
      <path
         d="M333.858,408h25.344c-0.558-2.761-1.411-5.437-2.531-8h-18.195L333.858,408z"
         fill="none"
         id="path72" />
      <path
         d="M207.454,411.859l24.467,6.555c0.048-0.799,0.08-1.603,0.08-2.414c0-5.687-1.201-11.097-3.35-16h-9.337   L207.454,411.859z"
         fill="none"
         id="path74" />
      <path
         d="M346.521,445.935c0.599-0.532,1.19-1.078,1.761-1.649c5.632-5.633,9.377-12.651,10.92-20.285h-25.344   L346.521,445.935z"
         fill="none"
         id="path76" />
      <path
         d="M152.08,413.586c-0.048,0.8-0.08,1.603-0.08,2.414c0,8.141,2.451,15.717,6.645,22.042l17.902-17.902   L152.08,413.586z"
         fill="none"
         id="path78" />
      <path
         d="M103.202,408c-1.543-7.634-5.287-14.653-10.92-20.285c-0.572-0.572-1.162-1.117-1.761-1.649L77.858,408   H103.202z"
         fill="none"
         id="path80" />
      <path
         d="M90.521,445.935c0.599-0.532,1.19-1.078,1.761-1.649c5.632-5.633,9.377-12.651,10.92-20.285H77.858   L90.521,445.935z"
         fill="none"
         id="path82" />
      <path
         d="M37.481,386.066c-0.599,0.532-1.19,1.078-1.761,1.649c-5.632,5.632-9.377,12.651-10.92,20.285h25.344   L37.481,386.066z"
         fill="none"
         id="path84" />
      <path
         d="M64.001,432.004l-12.669,21.945c4.033,1.343,8.296,2.051,12.669,2.051s8.636-0.709,12.669-2.051   L64.001,432.004z"
         fill="none"
         id="path86" />
      <path
         d="M24.8,424c1.543,7.634,5.287,14.653,10.92,20.285c0.572,0.572,1.162,1.117,1.761,1.649L50.144,424H24.8   z"
         fill="none"
         id="path88" />
      <path
         d="M50.079,267.766l-1.991,3.185l16.481,16.482l0,0l20.433,20.435c3.625,3.621,5.305,8.809,4.484,13.871   c-0.82,5.066-4.055,9.457-8.641,11.754l-32.844,16.422v12.401c5.128-1.521,10.503-2.315,16-2.315c10.343,0,20.25,2.787,28.877,8   h20.15L84.14,264H56.868C54.095,264,51.556,265.41,50.079,267.766z"
         fill="none"
         id="path90" />
      <path
         d="M76.67,378.051C72.637,376.709,68.374,376,64.001,376c-4.373,0-8.636,0.708-12.669,2.051l12.669,21.945   L76.67,378.051z"
         fill="none"
         id="path92" />
      <path
         d="M280.8,424c1.543,7.634,5.287,14.653,10.92,20.285c0.572,0.572,1.162,1.117,1.761,1.649L306.144,424   H280.8z"
         fill="none"
         id="path94" />
      <path
         d="M465.866,451.773c7.728-3.876,14.031-10.179,17.907-17.907l-24.461-6.553L465.866,451.773z"
         fill="none"
         id="path96" />
      <path
         d="M430.135,380.228c-7.728,3.875-14.031,10.179-17.907,17.907l24.461,6.553L430.135,380.228z"
         fill="none"
         id="path98" />
      <path
         d="M408.08,413.586c-0.048,0.8-0.08,1.603-0.08,2.414c0,8.141,2.451,15.717,6.645,22.042l17.902-17.902   L408.08,413.586z"
         fill="none"
         id="path100" />
      <path
         d="M425.958,449.355c6.325,4.194,13.902,6.645,22.043,6.645c0.811,0,1.615-0.032,2.414-0.08l-6.555-24.467   L425.958,449.355z"
         fill="none"
         id="path102" />
      <path
         d="M487.921,418.414c0.048-0.799,0.08-1.603,0.08-2.414c0-8.141-2.451-15.718-6.645-22.043l-17.902,17.902   L487.921,418.414z"
         fill="none"
         id="path104" />
      <path
         d="M452.142,400.547l17.902-17.902c-6.325-4.194-13.902-6.645-22.043-6.645   c-0.811,0-1.615,0.032-2.414,0.08L452.142,400.547z"
         fill="none"
         id="path106" />
      <path
         d="M320.001,432.004l-12.669,21.945c4.033,1.343,8.296,2.051,12.669,2.051s8.636-0.709,12.669-2.051   L320.001,432.004z"
         fill="none"
         id="path108" />
      <path
         d="M48.001,349.914l-2.484,1.242c-1.141,0.566-2.359,0.844-3.578,0.844   c-2.07,0-4.117-0.809-5.656-2.344l-4.281-4.282V368c0,0.65,0.086,1.279,0.232,1.885c4.846-3.354,10.155-5.905,15.768-7.57V349.914z   "
         fill="#888693"
         id="path110" />
      <path
         d="M48.088,270.951l1.991-3.185c1.477-2.355,4.016-3.766,6.789-3.766H84.14l-3.802-13.688   c-0.261-0.769-0.547-1.541-0.849-2.312h-22.62c-8.32,0-15.93,4.215-20.352,11.281l-1.955,3.129c3.575,0.395,6.977,1.99,9.572,4.586   L48.088,270.951z"
         fill="#888693"
         id="path112" />
      <path
         d="M415.907,307.407l93.75-93.75c1.5-1.5,2.344-3.535,2.344-5.656s-0.844-4.156-2.344-5.656   l-16.016-16.012c-0.065-0.065-0.135-0.12-0.201-0.182c-0.702,2.623-2.068,5.105-4.126,7.163l0,0c-2.06,2.06-4.544,3.426-7.17,4.127   c0.063,0.067,0.119,0.138,0.184,0.204L492.688,208l-68.221,68.221l-8.697,31.309C415.815,307.488,415.863,307.451,415.907,307.407z   "
         fill="#5c546a"
         id="path114" />
      <path
         d="M136.001,160h-8h-8v28.591c5.247-1.722,10.579-3.346,16-4.859V160z"
         fill="#888693"
         id="path116" />
      <path
         d="M80.29,250.141c-0.195-0.707-0.086-1.423-0.085-2.141h7.796h144   c0,10.493,6.737,19.408,16.119,22.669c-0.073,0.434-0.119,0.876-0.119,1.331v16c0,4.418,3.578,8,8,8s8-3.582,8-8v-16   c0-0.454-0.047-0.897-0.119-1.331c9.382-3.261,16.119-12.176,16.119-22.669h151.797c0,0.717,0.109,1.434-0.086,2.141l-0.047,0.171   c3.014-8.897,8.851-18.312,16.337-18.312h-112h-16h-56h-16h-56h-16h-112c6.838,0,12.296,7.858,15.488,16   c0.302,0.771,0.588,1.542,0.849,2.312L80.29,250.141z"
         fill="#b6b8be"
         id="path118" />
      <path
         d="M424.467,276.222l7.197-25.91l0.047-0.171c0.195-0.707,0.086-1.423,0.086-2.141H280.001   c0,10.493-6.737,19.408-16.119,22.669c0.073,0.434,0.119,0.876,0.119,1.331v16c0,4.418-3.578,8-8,8s-8-3.582-8-8v-16   c0-0.454,0.047-0.897,0.119-1.331c-9.382-3.262-16.119-12.176-16.119-22.669h-144h-7.796c-0.001,0.717-0.109,1.434,0.085,2.141   l0.047,0.171L84.14,264l28.889,104h0l-4.444-16h294.832l-4.444,16h0l16.797-60.47L424.467,276.222z"
         fill="#d5d9de"
         id="path120" />
      <path
         d="M356.671,400c-1.976-4.525-4.793-8.689-8.389-12.285c-0.572-0.572-1.162-1.117-1.761-1.649   L338.476,400H356.671z"
         fill="#b6b8be"
         id="path122" />
      <path
         d="M332.67,378.051c-4.033-1.343-8.296-2.051-12.669-2.051s-8.636,0.708-12.669,2.051l12.669,21.945   L332.67,378.051z"
         fill="#b6b8be"
         id="path124" />
      <path
         d="M179.433,400l-5.297-19.772c-7.728,3.875-14.031,10.179-17.907,17.907l6.962,1.865H179.433z"
         fill="#b6b8be"
         id="path126" />
      <path
         d="M293.481,386.066c-0.599,0.532-1.19,1.078-1.761,1.649c-3.596,3.596-6.413,7.76-8.389,12.285h18.195   L293.481,386.066z"
         fill="#b6b8be"
         id="path128" />
      <path
         d="M196.688,400l17.355-17.355c-6.325-4.194-13.902-6.645-22.043-6.645   c-0.811,0-1.615,0.032-2.414,0.08l6.409,23.92H196.688z"
         fill="#b6b8be"
         id="path130" />
      <path
         d="M384.001,376c0-4.418,3.578-8,8-8h6.972l4.444-16H108.584l4.444,16h6.972c4.422,0,8,3.582,8,8   s-3.578,8-8,8h-1.46c4.357,7.515,11.639,12.982,20.084,15.066C145.82,376.44,167.026,360,192.001,360   c25.316,0,46.755,16.895,53.658,40h20.657c2.618-8.822,7.401-16.908,14.091-23.598C290.985,365.825,305.048,360,320.001,360   c14.961,0,29.016,5.824,39.594,16.402c6.452,6.452,11.125,14.204,13.798,22.66c8.439-2.087,15.714-7.552,20.068-15.063h-1.46   C387.579,384,384.001,380.418,384.001,376z"
         fill="#b6b8be"
         id="path132" />
      <path
         d="M128.001,376c0-4.418-3.578-8-8-8h-6.972h0h-20.15c3.852,2.328,7.451,5.137,10.716,8.402   c2.365,2.365,4.479,4.913,6.357,7.598h8.589h1.46C124.423,384,128.001,380.418,128.001,376z"
         fill="#888693"
         id="path134" />
      <path
         d="M392.001,368c-4.422,0-8,3.582-8,8s3.578,8,8,8h1.46h8.624c4.364-6.242,9.961-11.558,16.442-15.587   c-0.795-0.264-1.642-0.413-2.527-0.413h-17.028h0H392.001z"
         fill="#888693"
         id="path136" />
      <g
         id="g142">
        <path
           d="M264.001,232h56v-59.73c-18.169-2.471-36.904-3.89-56-4.2V232z"
           fill="#5c546a"
           id="path138" />
        <path
           d="M455.36,217.149c-33.515-20.198-74.432-34.601-119.359-42.4V232h112h3.227    c3.594,0,6.742-2.395,7.711-5.855C459.899,222.68,458.43,219.004,455.36,217.149z"
           fill="#5c546a"
           id="path140" />
      </g>
      <g
         id="g148">
        <path
           d="M120.001,188.591c-23.074,7.573-44.405,17.135-63.359,28.558c-3.07,1.855-4.539,5.531-3.578,8.996    c0.969,3.461,4.117,5.855,7.711,5.855h3.227h112v-57.244c-13.738,2.386-27.109,5.377-40,8.975    C130.58,185.245,125.248,186.869,120.001,188.591z"
           fill="#5c546a"
           id="path144" />
        <path
           d="M192.001,172.278V232h56v-63.935C228.903,168.375,210.17,169.804,192.001,172.278z"
           fill="#5c546a"
           id="path146" />
      </g>
      <path
         d="M128.001,160h8h8c2.375,0,4.625-1.055,6.141-2.875c1.523-1.82,2.156-4.223,1.727-6.555l-16-88   c-0.688-3.805-4-6.57-7.867-6.57V160z"
         fill="#ffcf00"
         id="path150" />
      <rect
         x="388px"
         y="96px"
         width="15px"
         height="6px"
         transform="matrix(0.7071 -0.7071 0.7071 0.7071 45.2736 309.303)"
         fill="#ff9300"
         id="rect152" />
      <rect
         x="372px"
         y="80px"
         width="15px"
         height="6px"
         transform="matrix(0.7071 -0.7071 0.7071 0.7071 51.902 293.3041)"
         fill="#ff9300"
         id="rect154" />
      <rect
         x="356px"
         y="64px"
         width="15px"
         height="6px"
         transform="matrix(0.7071 -0.7071 0.7071 0.7071 58.5296 277.3042)"
         fill="#ff9300"
         id="rect156" />
      <rect
         x="404px"
         y="112px"
         width="15px"
         height="6px"
         transform="matrix(0.7071 -0.7071 0.7071 0.7071 38.6465 325.3037)"
         fill="#ff9300"
         id="rect158" />
      <rect
         x="420px"
         y="128px"
         width="15px"
         height="6px"
         transform="matrix(0.7071 -0.7071 0.7071 0.7071 32.0187 341.3036)"
         fill="#ff9300"
         id="rect160" />
      <rect
         x="438px"
         y="143px"
         width="15px"
         height="12px"
         transform="matrix(0.7071 -0.7071 0.7071 0.7071 24.5625 359.3035)"
         fill="#ff9300"
         id="rect162" />
      <path
         d="M472.626,154.001l0.343,0.343l4.688-4.688c3.125-3.125,3.125-8.188,0-11.313s-8.188-3.125-11.313,0   l-10.346,10.346l-11.313,11.313l-10.342,10.342c-3.125,3.125-3.125,8.188,0,11.313c1.563,1.563,3.609,2.344,5.656,2.344   s4.094-0.781,5.656-2.344l4.688-4.688l-0.343-0.343L472.626,154.001z"
         fill="#5c546a"
         id="path164" />
      <path
         d="M489.314,193.314c2.058-2.058,3.424-4.54,4.126-7.163c1.429-5.34,0.064-11.272-4.126-15.462   l-16.345-16.345l-0.343-0.343l-22.625,22.625l0.343,0.343l16.345,16.345c4.188,4.188,10.117,5.554,15.455,4.127   C484.77,196.74,487.254,195.373,489.314,193.314L489.314,193.314z"
         fill="#888693"
         id="path166" />
      <path
         d="M453.657,133.657c3.125-3.125,3.125-8.188,0-11.313s-8.188-3.125-11.313,0l-6.345,6.345   l-11.313,11.313l-6.342,6.342c-3.125,3.125-3.125,8.188,0,11.313c1.563,1.563,3.609,2.344,5.656,2.344   c2.047,0,4.094-0.781,5.656-2.344l6.342-6.342l11.313-11.313L453.657,133.657z"
         fill="#ffcf00"
         id="path168" />
      <path
         d="M437.657,117.657c3.125-3.125,3.125-8.188,0-11.313s-8.188-3.125-11.313,0L420,112.689   l-11.313,11.313l-6.343,6.343c-3.125,3.125-3.125,8.188,0,11.313c1.563,1.563,3.609,2.344,5.656,2.344s4.094-0.781,5.656-2.344   l6.342-6.342l11.313-11.313L437.657,117.657z"
         fill="#ffcf00"
         id="path170" />
      <path
         d="M421.657,101.657c3.125-3.125,3.125-8.188,0-11.313c-3.125-3.125-8.188-3.125-11.313,0L404,96.689   l-11.313,11.313l-6.343,6.343c-3.125,3.125-3.125,8.188,0,11.313c1.563,1.563,3.609,2.344,5.656,2.344s4.094-0.781,5.656-2.344   l6.343-6.343l11.313-11.313L421.657,101.657z"
         fill="#ffcf00"
         id="path172" />
      <path
         d="M405.657,85.657c3.125-3.125,3.125-8.188,0-11.313s-8.188-3.125-11.313,0L388,80.688l-11.313,11.313   l-6.343,6.343c-3.125,3.125-3.125,8.188,0,11.313c1.563,1.563,3.609,2.344,5.656,2.344s4.094-0.781,5.656-2.344l6.343-6.343   l11.313-11.313L405.657,85.657z"
         fill="#ffcf00"
         id="path174" />
      <path
         d="M389.657,69.657c3.125-3.125,3.125-8.187,0-11.312s-8.188-3.125-11.313,0l-6.344,6.344   l-11.313,11.313l-6.344,6.344c-3.125,3.125-3.125,8.188,0,11.313c1.563,1.563,3.609,2.344,5.656,2.344s4.094-0.781,5.656-2.344   L372,87.313l11.313-11.313L389.657,69.657z"
         fill="#ffcf00"
         id="path176" />
      <path
         d="M373.657,53.657c3.125-3.125,3.125-8.188,0-11.313s-8.188-3.125-11.313,0l-24,24   c-3.125,3.125-3.125,8.188,0,11.313c1.563,1.563,3.609,2.344,5.656,2.344s4.094-0.781,5.656-2.344l6.344-6.344l11.313-11.312   L373.657,53.657z"
         fill="#ffcf00"
         id="path178" />
      <path
         d="M48.088,270.951l-3.954-3.954c-2.596-2.596-5.997-4.191-9.572-4.586   c-1.418-0.157-2.862-0.131-4.295,0.106c-5.063,0.82-9.461,4.047-11.758,8.637L0.845,306.481c-1.539,3.082-0.938,6.801,1.5,9.234   l16.97,16.972l45.254-45.254L48.088,270.951z"
         fill="#d5d9de"
         id="path180" />
      <path
         d="M76.67,453.949c5.071-1.688,9.773-4.391,13.851-8.014L77.858,424h25.344   c0.526-2.605,0.799-5.282,0.799-8c0-2.719-0.273-5.395-0.799-8H77.858l12.663-21.935c-4.078-3.623-8.78-6.326-13.851-8.014   l-12.669,21.945l-12.669-21.945c-5.071,1.688-9.773,4.391-13.851,8.014L50.144,408H24.8c-0.526,2.605-0.799,5.281-0.799,8   c0,2.718,0.273,5.395,0.799,8h25.344l-12.663,21.935c4.078,3.623,8.78,6.326,13.851,8.014l12.669-21.945L76.67,453.949z"
         fill="#888693"
         id="path182" />
      <path
         d="M92.878,368c-8.627-5.213-18.535-8-28.877-8c-5.497,0-10.872,0.794-16,2.315   c-5.613,1.665-10.921,4.216-15.768,7.57c-2.769,1.917-5.394,4.085-7.826,6.518C13.829,386.981,8.001,401.043,8.001,416   s5.828,29.02,16.406,39.598S49.04,472,64.001,472c14.961,0,29.016-5.824,39.594-16.402s16.406-24.641,16.406-39.598   c0-11.613-3.527-22.678-10.049-32c-1.878-2.685-3.992-5.232-6.357-7.598C100.329,373.137,96.731,370.328,92.878,368z    M51.332,453.949c-5.071-1.688-9.773-4.391-13.851-8.014c-0.599-0.532-1.19-1.078-1.761-1.649   c-5.632-5.633-9.377-12.651-10.92-20.285c-0.526-2.605-0.799-5.282-0.799-8c0-2.719,0.273-5.395,0.799-8   c1.543-7.634,5.287-14.653,10.92-20.285c0.572-0.572,1.162-1.117,1.761-1.649c4.078-3.623,8.78-6.326,13.851-8.014   c4.033-1.343,8.296-2.051,12.669-2.051c4.373,0,8.636,0.708,12.669,2.051c5.071,1.688,9.773,4.391,13.851,8.014   c0.599,0.532,1.19,1.078,1.761,1.649c5.632,5.632,9.377,12.651,10.92,20.285c0.526,2.605,0.799,5.281,0.799,8   c0,2.718-0.273,5.395-0.799,8c-1.543,7.634-5.287,14.653-10.92,20.285c-0.572,0.572-1.162,1.117-1.761,1.649   c-4.078,3.623-8.78,6.326-13.851,8.014C72.637,455.292,68.374,456,64.001,456S55.365,455.292,51.332,453.949z"
         fill="#5c546a"
         id="path184" />
      <path
         d="M332.67,453.949c5.071-1.688,9.773-4.391,13.851-8.014L333.858,424h25.344   c0.526-2.605,0.799-5.282,0.799-8c0-2.719-0.273-5.395-0.799-8h-25.344l4.618-8l8.044-13.935c-4.078-3.623-8.78-6.326-13.851-8.014   l-12.669,21.945l-12.669-21.945c-5.071,1.688-9.773,4.391-13.851,8.014L301.525,400l4.618,8H280.8   c-0.526,2.605-0.799,5.281-0.799,8c0,2.718,0.273,5.395,0.799,8h25.344l-12.663,21.935c4.078,3.623,8.78,6.326,13.851,8.014   l12.669-21.945L332.67,453.949z"
         fill="#888693"
         id="path186" />
      <path
         d="M320.001,360c-14.953,0-29.016,5.824-39.594,16.402c-6.69,6.69-11.473,14.776-14.091,23.598   c-1.521,5.127-2.315,10.502-2.315,16c0,14.957,5.828,29.02,16.406,39.598S305.04,472,320.001,472   c14.961,0,29.016-5.824,39.594-16.402s16.406-24.641,16.406-39.598c0-5.834-0.898-11.529-2.608-16.937   c-2.673-8.457-7.346-16.209-13.798-22.66C349.016,365.825,334.962,360,320.001,360z M307.332,453.949   c-5.071-1.688-9.773-4.391-13.851-8.014c-0.599-0.532-1.19-1.078-1.761-1.649c-5.632-5.633-9.377-12.651-10.92-20.285   c-0.526-2.605-0.799-5.282-0.799-8c0-2.719,0.273-5.395,0.799-8c0.558-2.761,1.411-5.437,2.531-8   c1.976-4.525,4.793-8.689,8.389-12.285c0.572-0.572,1.162-1.117,1.761-1.649c4.078-3.623,8.78-6.326,13.851-8.014   c4.033-1.343,8.296-2.051,12.669-2.051s8.636,0.708,12.669,2.051c5.071,1.688,9.773,4.391,13.851,8.014   c0.599,0.532,1.19,1.078,1.761,1.649c3.596,3.596,6.413,7.76,8.389,12.285c1.119,2.563,1.973,5.239,2.531,8   c0.526,2.605,0.799,5.281,0.799,8c0,2.718-0.273,5.395-0.799,8c-1.543,7.634-5.287,14.653-10.92,20.285   c-0.572,0.572-1.162,1.117-1.761,1.649c-4.078,3.623-8.78,6.326-13.851,8.014c-4.033,1.343-8.296,2.051-12.669,2.051   S311.365,455.292,307.332,453.949z"
         fill="#5c546a"
         id="path188" />
      <path
         d="M219.313,400l6.043-6.043c-2.974-4.486-6.827-8.338-11.313-11.313L196.688,400l-0.547,0.546   L195.995,400l-6.409-23.92c-5.526,0.331-10.75,1.79-15.451,4.148L179.433,400l1.256,4.688L163.191,400l-6.962-1.865   c-2.358,4.701-3.817,9.926-4.148,15.451l24.467,6.555l-17.902,17.902c2.974,4.486,6.827,8.338,11.313,11.313l17.902-17.902   l6.555,24.467c5.526-0.331,10.75-1.79,15.451-4.148l-6.553-24.461l24.461,6.553c2.358-4.701,3.817-9.925,4.148-15.451   l-24.467-6.555L219.313,400z"
         fill="#888693"
         id="path190" />
      <path
         d="M192.001,360c-24.975,0-46.181,16.44-53.376,39.066c-1.7,5.345-2.624,11.033-2.624,16.934   c0,30.879,25.125,56,56,56c30.875,0,56-25.121,56-56c0-5.559-0.826-10.927-2.342-16C238.756,376.895,217.317,360,192.001,360z    M232.001,416c0,0.811-0.032,1.615-0.08,2.414c-0.331,5.526-1.79,10.75-4.148,15.451c-3.876,7.728-10.179,14.031-17.907,17.907   c-4.701,2.358-9.925,3.817-15.451,4.148c-0.799,0.048-1.603,0.08-2.414,0.08c-8.141,0-15.717-2.451-22.043-6.645   c-4.486-2.974-8.338-6.827-11.313-11.313c-4.194-6.325-6.645-13.902-6.645-22.042c0-0.811,0.032-1.615,0.08-2.414   c0.331-5.526,1.79-10.75,4.148-15.451c3.876-7.728,10.179-14.031,17.907-17.907c4.701-2.358,9.925-3.817,15.451-4.148   c0.799-0.048,1.603-0.08,2.414-0.08c8.141,0,15.717,2.451,22.043,6.645c4.486,2.974,8.338,6.827,11.313,11.313   c1.264,1.906,2.367,3.927,3.294,6.043C230.8,404.904,232.001,410.313,232.001,416z"
         fill="#5c546a"
         id="path192" />
      <path
         d="M445.586,376.08c-5.526,0.331-10.75,1.79-15.451,4.148l6.553,24.46l-24.461-6.553   c-2.358,4.701-3.817,9.926-4.148,15.451l24.467,6.555l-17.902,17.902c2.974,4.486,6.827,8.338,11.313,11.313l17.902-17.902   l6.555,24.467c5.526-0.331,10.75-1.79,15.451-4.148l-6.553-24.461l24.461,6.553c2.358-4.701,3.817-9.925,4.148-15.451   l-24.467-6.555l17.902-17.902c-2.974-4.486-6.827-8.338-11.313-11.313l-17.902,17.902L445.586,376.08z"
         fill="#888693"
         id="path194" />
      <path
         d="M402.085,384c-6.346,9.078-10.084,20.108-10.084,32c0,30.879,25.125,56,56,56   c30.875,0,56-25.121,56-56s-25.125-56-56-56c-10.808,0-20.906,3.087-29.473,8.413C412.046,372.443,406.449,377.758,402.085,384z    M470.043,382.645c4.486,2.974,8.338,6.827,11.313,11.313c4.194,6.325,6.645,13.902,6.645,22.043c0,0.811-0.032,1.615-0.08,2.414   c-0.331,5.526-1.79,10.75-4.148,15.451c-3.876,7.728-10.179,14.031-17.907,17.907c-4.701,2.358-9.925,3.817-15.451,4.148   c-0.799,0.048-1.603,0.08-2.414,0.08c-8.141,0-15.717-2.451-22.043-6.645c-4.486-2.974-8.338-6.827-11.313-11.313   c-4.194-6.325-6.645-13.902-6.645-22.042c0-0.811,0.032-1.615,0.08-2.414c0.331-5.526,1.79-10.75,4.148-15.451   c3.876-7.728,10.179-14.031,17.907-17.907c4.701-2.358,9.925-3.817,15.451-4.148c0.799-0.048,1.603-0.08,2.414-0.08   C456.141,376,463.718,378.451,470.043,382.645z"
         fill="#5c546a"
         id="path196" />
      <path
         d="M192.001,172.438c-5.367,0.731-10.737,1.458-16,2.372V232h16V172.438z"
         fill="#888693"
         id="path198" />
      <path
         d="M248.001,232h16v-63.77c-2.678-0.043-5.308-0.23-8-0.23s-5.322,0.187-8,0.23V232z"
         fill="#888693"
         id="path200" />
      <path
         d="M336.001,174.81c-5.263-0.914-10.633-1.64-16-2.372V232h16V174.81z"
         fill="#888693"
         id="path202" />
      <path
         d="M128.001,56c-3.867,0-7.18,2.766-7.867,6.57l-16,88c-0.43,2.332,0.203,4.734,1.727,6.555   c1.516,1.82,3.766,2.875,6.141,2.875h8h8V56z"
         fill="#ff9300"
         id="path204" />
      <path
         d="M41.938,352c1.219,0,2.438-0.277,3.578-0.844l2.484-1.242l32.844-16.422   c4.586-2.297,7.82-6.688,8.641-11.754c0.82-5.063-0.859-10.25-4.484-13.871l-20.433-20.435l0,0l-45.254,45.254l0,0l12.687,12.688   l4.281,4.282C37.821,351.192,39.868,352,41.938,352z"
         fill="#b6b8be"
         id="path206" />
    </g>
    <g
       transform="matrix(0.078125 0 0 0.078125 242.5 67.5)"
       id="L1_25">
      <path
         d="M176,488c-1.242,0-2.469-0.289-3.578-0.844L168,484.945V496c0,8.82,7.18,16,16,16h72v-24H176z"
         fill="#888693"
         id="path209" />
      <path
         d="M336,488h-80v24h72c8.82,0,16-7.18,16-16v-11.055l-4.422,2.211C338.469,487.711,337.242,488,336,488   z"
         fill="#b6b8be"
         id="path211" />
      <path
         d="M176,24h80V0h-72c-8.82,0-16,7.18-16,16v11.055l4.422-2.211C173.531,24.289,174.758,24,176,24z"
         fill="#888693"
         id="path213" />
      <path
         d="M336,24c1.242,0,2.469,0.289,3.578,0.844L344,27.055V16c0-8.82-7.18-16-16-16h-72v24H336z"
         fill="#b6b8be"
         id="path215" />
      <path
         d="M376,400 136,400 136,416 256,416 424,416 424,400 424,384 376,384z"
         fill="#e3e6e9"
         id="path217" />
      <rect
         x="376px"
         y="144px"
         width="48px"
         height="224px"
         fill="#e3e6e9"
         id="rect219" />
      <rect
         x="88px"
         y="112px"
         width="48px"
         height="16px"
         fill="#888693"
         id="rect221" />
      <rect
         x="88px"
         y="144px"
         width="48px"
         height="224px"
         fill="#888693"
         id="rect223" />
      <rect
         x="88px"
         y="384px"
         width="48px"
         height="16px"
         fill="#888693"
         id="rect225" />
      <rect
         x="136px"
         y="384px"
         width="240px"
         height="16px"
         fill="#b6b8be"
         id="rect227" />
      <path
         d="M376,368V144h-69.398C329.22,159.925,344,186.235,344,216c0,48.601-39.399,88-88,88   c-48.601,0-88-39.399-88-88c0-29.764,14.779-56.074,37.397-72H136v224H376z"
         fill="#b6b8be"
         id="path229" />
      <path
         d="M256,128 376,128 376,112 136,112 136,128z"
         fill="#b6b8be"
         id="path231" />
      <path
         d="M336,24h-80v8v40v8v16h168V72h-0.002c0-0.011,0-0.022,0-0.034c-0.002-0.526-0.054-1.045-0.156-1.553   c-0.01-0.047-0.022-0.092-0.033-0.138c-0.042-0.19-0.089-0.378-0.145-0.563c-0.025-0.084-0.054-0.167-0.082-0.251   c-0.049-0.146-0.101-0.29-0.158-0.432c-0.036-0.09-0.073-0.179-0.112-0.268c-0.061-0.138-0.128-0.274-0.197-0.409   c-0.041-0.08-0.08-0.16-0.124-0.239c-0.089-0.159-0.185-0.314-0.284-0.467c-0.031-0.047-0.058-0.096-0.09-0.143   c-0.138-0.204-0.285-0.401-0.442-0.592c-0.006-0.007-0.012-0.013-0.017-0.019c-0.149-0.179-0.306-0.351-0.471-0.518   c-0.043-0.044-0.09-0.085-0.135-0.128c-0.128-0.123-0.259-0.244-0.395-0.359c-0.065-0.055-0.133-0.107-0.2-0.16   c-0.119-0.094-0.24-0.185-0.364-0.272c-0.086-0.06-0.173-0.119-0.262-0.176c-0.108-0.07-0.219-0.136-0.331-0.201   c-0.107-0.062-0.214-0.123-0.325-0.18c-0.033-0.017-0.065-0.038-0.099-0.055L344,27.055l-4.422-2.211   C338.469,24.289,337.242,24,336,24z"
         fill="#888693"
         id="path233" />
      <path
         d="M256,96V80v-8V32v-8h-80c-1.242,0-2.469,0.289-3.578,0.844L168,27.055L92.422,64.844   c-0.034,0.017-0.065,0.037-0.099,0.055c-0.111,0.057-0.218,0.118-0.325,0.18c-0.112,0.065-0.223,0.131-0.331,0.201   c-0.089,0.057-0.176,0.116-0.262,0.176c-0.125,0.087-0.245,0.178-0.364,0.272c-0.067,0.053-0.135,0.106-0.2,0.161   c-0.137,0.115-0.267,0.236-0.395,0.359c-0.045,0.043-0.091,0.084-0.135,0.128c-0.165,0.166-0.322,0.339-0.471,0.518   c-0.006,0.007-0.012,0.013-0.017,0.019c-0.157,0.191-0.304,0.388-0.442,0.592c-0.032,0.047-0.059,0.096-0.09,0.143   c-0.099,0.153-0.195,0.307-0.283,0.466c-0.044,0.079-0.083,0.16-0.124,0.24c-0.069,0.135-0.135,0.27-0.197,0.408   c-0.039,0.088-0.076,0.178-0.112,0.268c-0.057,0.142-0.109,0.286-0.158,0.432c-0.028,0.084-0.057,0.167-0.082,0.252   c-0.055,0.185-0.103,0.373-0.145,0.562c-0.01,0.046-0.023,0.092-0.033,0.139c-0.103,0.507-0.154,1.026-0.156,1.552   c0,0.012,0,0.023,0,0.035H88v24h48H256z"
         fill="#5c546a"
         id="path235" />
      <path
         d="M176,488h80v-8v-40v-8v-16H136H88v24h0.002c0,0.012-0.001,0.023,0,0.035   c0.002,0.525,0.054,1.045,0.156,1.552c0.009,0.046,0.022,0.092,0.033,0.138c0.042,0.19,0.089,0.377,0.145,0.563   c0.025,0.085,0.054,0.168,0.082,0.252c0.049,0.146,0.101,0.289,0.158,0.432c0.036,0.09,0.073,0.179,0.112,0.268   c0.061,0.138,0.127,0.274,0.197,0.408c0.041,0.08,0.081,0.161,0.124,0.24c0.089,0.159,0.185,0.314,0.284,0.468   c0.03,0.047,0.058,0.095,0.089,0.141c0.138,0.204,0.285,0.401,0.443,0.592c0.005,0.007,0.011,0.013,0.017,0.019   c0.148,0.179,0.306,0.351,0.471,0.518c0.043,0.044,0.09,0.085,0.135,0.128c0.128,0.123,0.259,0.244,0.395,0.359   c0.065,0.055,0.133,0.107,0.2,0.16c0.119,0.094,0.24,0.185,0.365,0.273c0.085,0.06,0.172,0.118,0.26,0.175   c0.109,0.07,0.219,0.137,0.332,0.202c0.106,0.062,0.214,0.122,0.324,0.179c0.033,0.017,0.065,0.038,0.099,0.055L168,484.945   l4.422,2.211C173.531,487.711,174.758,488,176,488z"
         fill="#5c546a"
         id="path237" />
      <path
         d="M422.619,444.495c0.031-0.046,0.058-0.094,0.088-0.141c0.1-0.154,0.196-0.309,0.285-0.469   c0.043-0.078,0.083-0.159,0.124-0.238c0.069-0.135,0.136-0.271,0.197-0.409c0.039-0.088,0.076-0.178,0.112-0.268   c0.057-0.143,0.109-0.287,0.158-0.432c0.028-0.083,0.056-0.167,0.082-0.251c0.056-0.186,0.103-0.374,0.145-0.564   c0.01-0.046,0.023-0.091,0.032-0.138c0.103-0.507,0.154-1.027,0.156-1.553c0-0.011,0-0.022,0-0.034H424v-24H256v16v8v40v8h80   c1.242,0,2.469-0.289,3.578-0.844l4.422-2.211l75.578-37.789c0.034-0.017,0.065-0.037,0.099-0.055   c0.11-0.057,0.218-0.118,0.324-0.18c0.113-0.065,0.223-0.132,0.332-0.201c0.089-0.057,0.176-0.115,0.261-0.175   c0.125-0.088,0.246-0.179,0.365-0.273c0.067-0.053,0.135-0.105,0.199-0.16c0.137-0.115,0.268-0.236,0.395-0.359   c0.045-0.043,0.091-0.084,0.135-0.128c0.165-0.166,0.322-0.339,0.471-0.518c0.005-0.007,0.011-0.013,0.017-0.019   C422.333,444.897,422.48,444.699,422.619,444.495z"
         fill="#888693"
         id="path239" />
      <rect
         x="88px"
         y="400px"
         width="48px"
         height="16px"
         fill="#b6b8be"
         id="rect241" />
      <path
         d="M256,96 136,96 136,112 376,112 376,128 424,128 424,112 424,96z"
         fill="#e3e6e9"
         id="path243" />
      <rect
         x="88px"
         y="96px"
         width="48px"
         height="16px"
         fill="#b6b8be"
         id="rect245" />
      <rect
         x="136px"
         y="368px"
         width="240px"
         height="16px"
         fill="#888693"
         id="rect247" />
      <rect
         x="376px"
         y="368px"
         width="48px"
         height="16px"
         fill="#b6b8be"
         id="rect249" />
      <rect
         x="88px"
         y="368px"
         width="48px"
         height="16px"
         fill="#5c546a"
         id="rect251" />
      <path
         d="M306.602,144H376v-16H256C274.836,128,292.288,133.921,306.602,144z"
         fill="#888693"
         id="path253" />
      <path
         d="M205.397,144c14.314-10.079,31.766-16,50.602-16H136v16H205.397z"
         fill="#888693"
         id="path255" />
      <rect
         x="376px"
         y="128px"
         width="48px"
         height="16px"
         fill="#b6b8be"
         id="rect257" />
      <rect
         x="88px"
         y="128px"
         width="48px"
         height="16px"
         fill="#5c546a"
         id="rect259" />
      <path
         d="M264,128.404V152c0,4.422-3.578,8-8,8s-8-3.578-8-8v-23.596c2.639-0.238,5.299-0.404,8-0.404   c-18.836,0-36.288,5.921-50.602,16C182.779,159.925,168,186.235,168,216c0-2.701,0.166-5.361,0.404-8H192c4.422,0,8,3.578,8,8   s-3.578,8-8,8h-23.596c-0.238-2.639-0.404-5.299-0.404-8c0,48.601,39.399,88,88,88c-2.701,0-5.361-0.166-8-0.404V280   c0-4.422,3.578-8,8-8s8,3.578,8,8v23.596c-2.639,0.238-5.299,0.404-8,0.404c48.601,0,88-39.399,88-88c0,2.701-0.166,5.361-0.404,8   H320c-4.422,0-8-3.578-8-8s3.578-8,8-8h23.596c0.238,2.639,0.404,5.299,0.404,8c0-29.764-14.78-56.074-37.398-72   c-14.314-10.079-31.766-16-50.602-16C258.7,128,261.361,128.165,264,128.404z M304,232c0,17.648-14.352,32-32,32h-32   c-17.648,0-32-14.352-32-32v-32c0-17.648,14.352-32,32-32h32c17.648,0,32,14.352,32,32V232z"
         fill="#5c546a"
         id="path261" />
      <path
         d="M272,168h-32c-17.648,0-32,14.352-32,32v32c0,17.648,14.352,32,32,32h32c17.648,0,32-14.352,32-32   v-32C304,182.352,289.648,168,272,168z M256,240c-13.255,0-24-10.745-24-24s10.745-24,24-24c13.255,0,24,10.745,24,24   S269.255,240,256,240z"
         fill="#b6b8be"
         id="path263" />
      <circle
         cx="256"
         cy="216"
         r="24"
         fill="#888693"
         id="circle265" />
      <path
         d="M320,208c-4.422,0-8,3.578-8,8s3.578,8,8,8h23.596c0.238-2.639,0.404-5.299,0.404-8   s-0.166-5.361-0.404-8H320z"
         fill="#888693"
         id="path267" />
      <path
         d="M248,152c0,4.422,3.578,8,8,8s8-3.578,8-8v-23.596c-2.639-0.238-5.299-0.404-8-0.404   s-5.361,0.166-8,0.404V152z"
         fill="#888693"
         id="path269" />
      <path
         d="M192,224c4.422,0,8-3.578,8-8s-3.578-8-8-8h-23.596c-0.238,2.639-0.404,5.299-0.404,8   s0.166,5.361,0.404,8H192z"
         fill="#888693"
         id="path271" />
      <path
         d="M264,280c0-4.422-3.578-8-8-8s-8,3.578-8,8v23.596c2.639,0.238,5.299,0.404,8,0.404   s5.361-0.166,8-0.404V280z"
         fill="#888693"
         id="path273" />
    </g>
    <g
       transform="matrix(0.17578056454658508 0 0 0.17578056454658508 305 305)"
       id="L1_26">
      <path
         d="M287.988,268.001c0.003,2.031-0.761,3.998-2.168,5.492c-1.508,1.602-3.617,2.508-5.82,2.508h-8v8h40   v-16H287.988z"
         fill="none"
         id="path276" />
      <path
         d="M232,276.001c-2.203,0-4.313-0.906-5.82-2.508c-1.407-1.494-2.171-3.461-2.168-5.492H200v16h40v-8H232z   "
         fill="none"
         id="path278" />
      <path
         d="M90.797,330.071c-0.212-0.182-0.413-0.373-0.601-0.571l-20.675,41.35l62.751-5.229L90.797,330.071z"
         fill="none"
         id="path280" />
      <path
         d="M144,354.614 144,310.243 103.922,320.261z"
         fill="none"
         id="path282" />
      <path
         d="M408.08,320.261 368,310.242 368,354.615z"
         fill="none"
         id="path284" />
      <path
         d="M421.205,330.071l-41.475,35.55l62.751,5.229l-20.675-41.35   C421.617,329.698,421.417,329.889,421.205,330.071z"
         fill="none"
         id="path286" />
      <path
         d="M231.914,136.661c0.343-1.604,0.919-3.116,1.7-4.499l-59.349-13.192   c-3.688-0.813-6.266-4.023-6.266-7.805v-4.187c-2.559,0.661-5.237,1.023-8,1.023c-1.8,0-3.565-0.149-5.285-0.436   c-0.92-0.153-1.823-0.357-2.715-0.587v4.187c0,11.336,7.727,20.969,18.797,23.43l44.608,9.915   c4.199-2.853,8.741-5.303,13.595-7.267C229.929,136.862,230.917,136.671,231.914,136.661z"
         fill="#5c546a"
         id="path288" />
      <path
         d="M264,108.001c0-0.454-0.047-0.897-0.119-1.331c-2.469,0.858-5.119,1.331-7.881,1.331   c-2.762,0-5.411-0.472-7.881-1.331c-0.073,0.434-0.119,0.876-0.119,1.331v16h16V108.001z"
         fill="#5c546a"
         id="path290" />
      <rect
         x="184px"
         y="268px"
         width="16px"
         height="16px"
         fill="#5c546a"
         id="rect292" />
      <rect
         x="312px"
         y="268px"
         width="16px"
         height="16px"
         fill="#5c546a"
         id="rect294" />
      <path
         d="M240,276.001 240,284.001 256,284.001 272,284.001 272,276.001z"
         fill="#ff7400"
         id="path296" />
      <path
         d="M224.011,268.001c-0.003,2.031,0.761,3.998,2.168,5.492c1.508,1.602,3.617,2.508,5.82,2.508h8h32h8   c2.203,0,4.313-0.906,5.82-2.508c1.407-1.494,2.171-3.461,2.168-5.492H312h16h48c4.422,0,8-3.578,8-8v-28.469   c0-10.344-6.594-19.492-16.406-22.766l-37.063-12.352c-0.523-0.18-1.055-0.297-1.594-0.359l-1.388-0.163   c0.297,2.668,0.451,5.374,0.451,8.109c0,1.283-0.044,2.56-0.112,3.832l2.738,4.106c3.504,5.256,5.375,11.433,5.375,17.75v38.312   h-48.011c0-0.018,0-0.036,0-0.055c-0.001-0.138,0.005-0.276-0.004-0.414l-7.555-128.469c-0.049-0.829-0.178-1.634-0.348-2.424   c-1.561-7.251-7.998-12.639-15.628-12.639H264h-16h-0.453c-5.951,0-11.175,3.28-13.932,8.161c-0.781,1.383-1.357,2.895-1.7,4.499   c-0.167,0.783-0.295,1.581-0.344,2.403l-7.555,128.469c-0.008,0.138-0.003,0.276-0.004,0.414c-1.011-0.126-1.989-0.442-2.879-0.937   C198.227,254.306,184,230.165,184,204.001c0-7.874,1.27-15.509,3.637-22.689c-0.894,0.581-1.682,1.338-2.293,2.251l-10.625,15.938   c-4.398,6.586-6.719,14.258-6.719,22.188v38.313c0,4.422,3.578,8,8,8h8h16H224.011z M272,259.001c0,0.552-0.448,1-1,1h-30   c-0.552,0-1-0.448-1-1v-54c0-0.552,0.448-1,1-1h30c0.552,0,1,0.448,1,1V259.001z"
         fill="#ffcf00"
         id="path298" />
      <path
         d="M290.883,267.001c-0.898,0.502-1.881,0.82-2.895,0.945c0,0.018,0,0.036,0,0.055H336v-38.312   c0-6.317-1.87-12.494-5.375-17.75l-2.738-4.106C326.573,232.496,312.65,254.921,290.883,267.001z"
         fill="#ff9300"
         id="path300" />
      <path
         d="M287.984,267.532c0.008,0.138,0.003,0.276,0.004,0.414c1.014-0.126,1.997-0.443,2.895-0.945   c21.768-12.08,35.69-34.504,37.005-59.168c0.068-1.272,0.112-2.549,0.112-3.832c0-2.734-0.153-5.44-0.451-8.109   c-2.91-26.134-19.764-48.649-44.589-58.673c-0.916-0.375-1.896-0.565-2.88-0.58c0.17,0.789,0.299,1.595,0.348,2.424   L287.984,267.532z"
         fill="#fff2aa"
         id="path302" />
      <path
         d="M221.133,267.009c0.89,0.495,1.869,0.811,2.879,0.937c0.001-0.138-0.005-0.275,0.004-0.414   l7.555-128.469c0.049-0.822,0.177-1.62,0.344-2.403c-0.997,0.01-1.985,0.202-2.914,0.582c-4.854,1.964-9.396,4.414-13.595,7.267   c-13.136,8.924-22.846,21.866-27.768,36.802c-2.366,7.18-3.637,14.815-3.637,22.689C184,230.165,198.227,254.306,221.133,267.009z"
         fill="#ff9300"
         id="path304" />
      <path
         d="M168,380.001v8c0,8.82,7.18,16,16,16h64v-24H168z"
         fill="#ff7400"
         id="path306" />
      <path
         d="M264,404.001h64c8.82,0,16-7.18,16-16v-8h-80V404.001z"
         fill="#ff7400"
         id="path308" />
      <path
         d="M128.34,71.282c0.069-0.478,0.23-0.922,0.464-1.319C128.57,70.361,128.408,70.805,128.34,71.282   c-2.427,16.895,8.438,31.763,23.66,35.695c0.892,0.23,1.795,0.434,2.715,0.587C138.093,104.792,125.771,89.168,128.34,71.282z"
         fill="#b6b8be"
         id="path310" />
      <path
         d="M160,108.001c2.763,0,5.441-0.362,8-1.023c15.222-3.932,26.087-18.8,23.66-35.695   c-0.274-1.911-2.037-3.281-3.967-3.281H160V108.001z"
         fill="#b6b8be"
         id="path312" />
      <path
         d="M256,108.001c2.762,0,5.411-0.472,7.881-1.331C273.263,103.409,280,94.494,280,84.001   c0-13.255-10.745-24-24-24V108.001z"
         fill="#b6b8be"
         id="path314" />
      <path
         d="M144,372.001v-17.387l-40.078-34.353L144,310.243v-10.242c0-2.356,0.525-4.587,1.444-6.604   l-48.678,12.166c-9.078,2.273-16.68,8.375-20.859,16.734L19.055,436.001h17.891l24.202-48.405l91.141-7.595H152   C147.578,380.001,144,376.423,144,372.001z M90.196,329.5c0.189,0.198,0.389,0.389,0.601,0.571l41.475,35.55l-62.751,5.229   L90.196,329.5z"
         fill="#5c546a"
         id="path316" />
      <path
         d="M8,436.001c-4.422,0-8,3.578-8,8s3.578,8,8,8h40c4.422,0,8-3.578,8-8s-3.578-8-8-8H36.945H19.055H8z   "
         fill="#ff9300"
         id="path318" />
      <path
         d="M436.095,322.298c-4.18-8.359-11.781-14.461-20.859-16.734l-48.681-12.167   c0.919,2.016,1.444,4.248,1.444,6.604v10.241l40.08,10.019L368,354.615v17.386c0,4.422-3.578,8-8,8h-0.287l91.141,7.595   l24.202,48.405h17.891L436.095,322.298z M379.73,365.621l41.475-35.55c0.212-0.182,0.413-0.373,0.601-0.571l20.675,41.35   L379.73,365.621z"
         fill="#5c546a"
         id="path320" />
      <path
         d="M504.002,436.001h-11.055h-17.891h-11.055c-4.422,0-8,3.578-8,8s3.578,8,8,8h40c4.422,0,8-3.578,8-8   S508.424,436.001,504.002,436.001z"
         fill="#ff9300"
         id="path322" />
      <path
         d="M248,292.001c0-4.422,3.578-8,8-8h-16h-40h-16h-24c-6.464,0-12.035,3.864-14.556,9.396   c-0.919,2.016-1.444,4.248-1.444,6.604v10.242v44.371v17.387c0,4.422,3.578,8,8,8h0.289H168h80V292.001z"
         fill="#ff9300"
         id="path324" />
      <path
         d="M368,372.001v-17.386v-44.373v-10.241c0-2.356-0.525-4.588-1.444-6.604   c-2.521-5.532-8.091-9.396-14.556-9.396h-24h-16h-40h-16c4.422,0,8,3.578,8,8v88h80h15.713H360   C364.422,380.001,368,376.423,368,372.001z"
         fill="#ffcf00"
         id="path326" />
      <path
         d="M264,292.001c0-4.422-3.578-8-8-8c-4.422,0-8,3.578-8,8v88v24v32h16v-32v-24V292.001z"
         fill="#5c546a"
         id="path328" />
      <path
         d="M271,204.001h-30c-0.552,0-1,0.448-1,1v54c0,0.552,0.448,1,1,1h30c0.552,0,1-0.448,1-1v-54   C272,204.449,271.552,204.001,271,204.001z"
         fill="#ff9300"
         id="path330" />
      <path
         d="M256,60.001c-6.627,0-12.627,2.686-16.971,7.029c-1.086,1.086-2.068,2.275-2.931,3.552   c-0.431,0.638-0.833,1.299-1.202,1.979c-0.924,1.7-1.648,3.525-2.141,5.442C232.262,79.92,232,81.93,232,84.001   s0.262,4.081,0.756,5.998c0.493,1.917,1.217,3.742,2.141,5.442c0.369,0.68,0.771,1.34,1.202,1.979   c0.863,1.277,1.845,2.466,2.931,3.552c2.533,2.533,5.633,4.497,9.09,5.699c2.469,0.858,5.119,1.331,7.881,1.331V60.001z"
         fill="#888693"
         id="path332" />
      <path
         d="M154.715,107.565c1.719,0.287,3.485,0.436,5.285,0.436v-40h-27.693h0   c-1.448,0-2.801,0.771-3.503,1.963c-0.234,0.397-0.396,0.841-0.464,1.319C125.771,89.168,138.093,104.792,154.715,107.565z"
         fill="#888693"
         id="path334" />
      <path
         d="M232,436.001c-4.422,0-8,3.578-8,8s3.578,8,8,8h48c4.422,0,8-3.578,8-8s-3.578-8-8-8h-16h-16H232z"
         fill="#ff9300"
         id="path336" />
    </g>
    <g
       transform="matrix(-0.11718704551458359 0 0 0.11718704551458359 117.4997673034668 57.49999917030652)"
       id="L1_27">
      <path
         d="M287.988,268.001c0.003,2.031-0.761,3.998-2.168,5.492c-1.508,1.602-3.617,2.508-5.82,2.508h-8v8h40   v-16H287.988z"
         fill="none"
         id="path339" />
      <path
         d="M232,276.001c-2.203,0-4.313-0.906-5.82-2.508c-1.407-1.494-2.171-3.461-2.168-5.492H200v16h40v-8H232z   "
         fill="none"
         id="path341" />
      <path
         d="M90.797,330.071c-0.212-0.182-0.413-0.373-0.601-0.571l-20.675,41.35l62.751-5.229L90.797,330.071z"
         fill="none"
         id="path343" />
      <path
         d="M144,354.614 144,310.243 103.922,320.261z"
         fill="none"
         id="path345" />
      <path
         d="M408.08,320.261 368,310.242 368,354.615z"
         fill="none"
         id="path347" />
      <path
         d="M421.205,330.071l-41.475,35.55l62.751,5.229l-20.675-41.35   C421.617,329.698,421.417,329.889,421.205,330.071z"
         fill="none"
         id="path349" />
      <path
         d="M231.914,136.661c0.343-1.604,0.919-3.116,1.7-4.499l-59.349-13.192   c-3.688-0.813-6.266-4.023-6.266-7.805v-4.187c-2.559,0.661-5.237,1.023-8,1.023c-1.8,0-3.565-0.149-5.285-0.436   c-0.92-0.153-1.823-0.357-2.715-0.587v4.187c0,11.336,7.727,20.969,18.797,23.43l44.608,9.915   c4.199-2.853,8.741-5.303,13.595-7.267C229.929,136.862,230.917,136.671,231.914,136.661z"
         fill="#5c546a"
         id="path351" />
      <path
         d="M264,108.001c0-0.454-0.047-0.897-0.119-1.331c-2.469,0.858-5.119,1.331-7.881,1.331   c-2.762,0-5.411-0.472-7.881-1.331c-0.073,0.434-0.119,0.876-0.119,1.331v16h16V108.001z"
         fill="#5c546a"
         id="path353" />
      <rect
         x="184px"
         y="268px"
         width="16px"
         height="16px"
         fill="#5c546a"
         id="rect355" />
      <rect
         x="312px"
         y="268px"
         width="16px"
         height="16px"
         fill="#5c546a"
         id="rect357" />
      <path
         d="M240,276.001 240,284.001 256,284.001 272,284.001 272,276.001z"
         fill="#ff7400"
         id="path359" />
      <path
         d="M224.011,268.001c-0.003,2.031,0.761,3.998,2.168,5.492c1.508,1.602,3.617,2.508,5.82,2.508h8h32h8   c2.203,0,4.313-0.906,5.82-2.508c1.407-1.494,2.171-3.461,2.168-5.492H312h16h48c4.422,0,8-3.578,8-8v-28.469   c0-10.344-6.594-19.492-16.406-22.766l-37.063-12.352c-0.523-0.18-1.055-0.297-1.594-0.359l-1.388-0.163   c0.297,2.668,0.451,5.374,0.451,8.109c0,1.283-0.044,2.56-0.112,3.832l2.738,4.106c3.504,5.256,5.375,11.433,5.375,17.75v38.312   h-48.011c0-0.018,0-0.036,0-0.055c-0.001-0.138,0.005-0.276-0.004-0.414l-7.555-128.469c-0.049-0.829-0.178-1.634-0.348-2.424   c-1.561-7.251-7.998-12.639-15.628-12.639H264h-16h-0.453c-5.951,0-11.175,3.28-13.932,8.161c-0.781,1.383-1.357,2.895-1.7,4.499   c-0.167,0.783-0.295,1.581-0.344,2.403l-7.555,128.469c-0.008,0.138-0.003,0.276-0.004,0.414c-1.011-0.126-1.989-0.442-2.879-0.937   C198.227,254.306,184,230.165,184,204.001c0-7.874,1.27-15.509,3.637-22.689c-0.894,0.581-1.682,1.338-2.293,2.251l-10.625,15.938   c-4.398,6.586-6.719,14.258-6.719,22.188v38.313c0,4.422,3.578,8,8,8h8h16H224.011z M272,259.001c0,0.552-0.448,1-1,1h-30   c-0.552,0-1-0.448-1-1v-54c0-0.552,0.448-1,1-1h30c0.552,0,1,0.448,1,1V259.001z"
         fill="#ffcf00"
         id="path361" />
      <path
         d="M290.883,267.001c-0.898,0.502-1.881,0.82-2.895,0.945c0,0.018,0,0.036,0,0.055H336v-38.312   c0-6.317-1.87-12.494-5.375-17.75l-2.738-4.106C326.573,232.496,312.65,254.921,290.883,267.001z"
         fill="#ff9300"
         id="path363" />
      <path
         d="M287.984,267.532c0.008,0.138,0.003,0.276,0.004,0.414c1.014-0.126,1.997-0.443,2.895-0.945   c21.768-12.08,35.69-34.504,37.005-59.168c0.068-1.272,0.112-2.549,0.112-3.832c0-2.734-0.153-5.44-0.451-8.109   c-2.91-26.134-19.764-48.649-44.589-58.673c-0.916-0.375-1.896-0.565-2.88-0.58c0.17,0.789,0.299,1.595,0.348,2.424   L287.984,267.532z"
         fill="#fff2aa"
         id="path365" />
      <path
         d="M221.133,267.009c0.89,0.495,1.869,0.811,2.879,0.937c0.001-0.138-0.005-0.275,0.004-0.414   l7.555-128.469c0.049-0.822,0.177-1.62,0.344-2.403c-0.997,0.01-1.985,0.202-2.914,0.582c-4.854,1.964-9.396,4.414-13.595,7.267   c-13.136,8.924-22.846,21.866-27.768,36.802c-2.366,7.18-3.637,14.815-3.637,22.689C184,230.165,198.227,254.306,221.133,267.009z"
         fill="#ff9300"
         id="path367" />
      <path
         d="M168,380.001v8c0,8.82,7.18,16,16,16h64v-24H168z"
         fill="#ff7400"
         id="path369" />
      <path
         d="M264,404.001h64c8.82,0,16-7.18,16-16v-8h-80V404.001z"
         fill="#ff7400"
         id="path371" />
      <path
         d="M128.34,71.282c0.069-0.478,0.23-0.922,0.464-1.319C128.57,70.361,128.408,70.805,128.34,71.282   c-2.427,16.895,8.438,31.763,23.66,35.695c0.892,0.23,1.795,0.434,2.715,0.587C138.093,104.792,125.771,89.168,128.34,71.282z"
         fill="#b6b8be"
         id="path373" />
      <path
         d="M160,108.001c2.763,0,5.441-0.362,8-1.023c15.222-3.932,26.087-18.8,23.66-35.695   c-0.274-1.911-2.037-3.281-3.967-3.281H160V108.001z"
         fill="#b6b8be"
         id="path375" />
      <path
         d="M256,108.001c2.762,0,5.411-0.472,7.881-1.331C273.263,103.409,280,94.494,280,84.001   c0-13.255-10.745-24-24-24V108.001z"
         fill="#b6b8be"
         id="path377" />
      <path
         d="M144,372.001v-17.387l-40.078-34.353L144,310.243v-10.242c0-2.356,0.525-4.587,1.444-6.604   l-48.678,12.166c-9.078,2.273-16.68,8.375-20.859,16.734L19.055,436.001h17.891l24.202-48.405l91.141-7.595H152   C147.578,380.001,144,376.423,144,372.001z M90.196,329.5c0.189,0.198,0.389,0.389,0.601,0.571l41.475,35.55l-62.751,5.229   L90.196,329.5z"
         fill="#5c546a"
         id="path379" />
      <path
         d="M8,436.001c-4.422,0-8,3.578-8,8s3.578,8,8,8h40c4.422,0,8-3.578,8-8s-3.578-8-8-8H36.945H19.055H8z   "
         fill="#ff9300"
         id="path381" />
      <path
         d="M436.095,322.298c-4.18-8.359-11.781-14.461-20.859-16.734l-48.681-12.167   c0.919,2.016,1.444,4.248,1.444,6.604v10.241l40.08,10.019L368,354.615v17.386c0,4.422-3.578,8-8,8h-0.287l91.141,7.595   l24.202,48.405h17.891L436.095,322.298z M379.73,365.621l41.475-35.55c0.212-0.182,0.413-0.373,0.601-0.571l20.675,41.35   L379.73,365.621z"
         fill="#5c546a"
         id="path383" />
      <path
         d="M504.002,436.001h-11.055h-17.891h-11.055c-4.422,0-8,3.578-8,8s3.578,8,8,8h40c4.422,0,8-3.578,8-8   S508.424,436.001,504.002,436.001z"
         fill="#ff9300"
         id="path385" />
      <path
         d="M248,292.001c0-4.422,3.578-8,8-8h-16h-40h-16h-24c-6.464,0-12.035,3.864-14.556,9.396   c-0.919,2.016-1.444,4.248-1.444,6.604v10.242v44.371v17.387c0,4.422,3.578,8,8,8h0.289H168h80V292.001z"
         fill="#ff9300"
         id="path387" />
      <path
         d="M368,372.001v-17.386v-44.373v-10.241c0-2.356-0.525-4.588-1.444-6.604   c-2.521-5.532-8.091-9.396-14.556-9.396h-24h-16h-40h-16c4.422,0,8,3.578,8,8v88h80h15.713H360   C364.422,380.001,368,376.423,368,372.001z"
         fill="#ffcf00"
         id="path389" />
      <path
         d="M264,292.001c0-4.422-3.578-8-8-8c-4.422,0-8,3.578-8,8v88v24v32h16v-32v-24V292.001z"
         fill="#5c546a"
         id="path391" />
      <path
         d="M271,204.001h-30c-0.552,0-1,0.448-1,1v54c0,0.552,0.448,1,1,1h30c0.552,0,1-0.448,1-1v-54   C272,204.449,271.552,204.001,271,204.001z"
         fill="#ff9300"
         id="path393" />
      <path
         d="M256,60.001c-6.627,0-12.627,2.686-16.971,7.029c-1.086,1.086-2.068,2.275-2.931,3.552   c-0.431,0.638-0.833,1.299-1.202,1.979c-0.924,1.7-1.648,3.525-2.141,5.442C232.262,79.92,232,81.93,232,84.001   s0.262,4.081,0.756,5.998c0.493,1.917,1.217,3.742,2.141,5.442c0.369,0.68,0.771,1.34,1.202,1.979   c0.863,1.277,1.845,2.466,2.931,3.552c2.533,2.533,5.633,4.497,9.09,5.699c2.469,0.858,5.119,1.331,7.881,1.331V60.001z"
         fill="#888693"
         id="path395" />
      <path
         d="M154.715,107.565c1.719,0.287,3.485,0.436,5.285,0.436v-40h-27.693h0   c-1.448,0-2.801,0.771-3.503,1.963c-0.234,0.397-0.396,0.841-0.464,1.319C125.771,89.168,138.093,104.792,154.715,107.565z"
         fill="#888693"
         id="path397" />
      <path
         d="M232,436.001c-4.422,0-8,3.578-8,8s3.578,8,8,8h48c4.422,0,8-3.578,8-8s-3.578-8-8-8h-16h-16H232z"
         fill="#ff9300"
         id="path399" />
    </g>
  </defs>
</svg>
